Coordinates
version=1
nRows=32
nColumns=22
inDegrees=yes

Units are S.I. units (second, meters, Newtons, ...)
If the header above contains a line with 'inDegrees', this indicates whether rotational values are in degrees (yes) or radians (no).

endheader
time	pelvis_tilt	pelvis_list	pelvis_rotation	pelvis_tx	pelvis_ty	pelvis_tz	hip_flexion_r	hip_adduction_r	hip_rotation_r	knee_angle_r	ankle_angle_r	subtalar_angle_r	hip_flexion_l	hip_adduction_l	hip_rotation_l	knee_angle_l	ankle_angle_l	subtalar_angle_l	lumbar_extension	lumbar_bending	lumbar_rotation
      3.89000000	     -3.05270532	     -1.38323112	   -328.34870423	     -0.16058645	      0.93713984	     -0.63365500	     10.06605690	      3.87765232	      1.57803066	    -62.40175031	    -11.81944100	      2.66187960	     24.56077426	     -1.32385747	     13.94355071	    -28.41063303	     10.23112404	      8.74869386	      0.13787213	      2.02090911	     -8.28175991
      3.90000000	     -3.10619350	     -1.00537111	   -328.91668979	     -0.15339914	      0.93843009	     -0.63900026	     11.66494948	      2.82791252	      0.48422864	    -64.56222266	    -11.97322836	      1.53286991	     23.60104687	     -1.12131903	     13.33352162	    -28.22101098	     10.72736728	      8.45929530	     -0.11017486	      1.69667187	     -8.77155906
      3.91000000	     -3.10236077	     -0.66920563	   -329.46748863	     -0.14617278	      0.93985048	     -0.64414159	     13.17872895	      1.86808391	     -0.52938733	    -66.45088861	    -11.64640998	      0.52417113	     22.58138885	     -0.97212310	     12.78597813	    -27.95322060	     11.17526026	      8.18082232	     -0.37808658	      1.43960176	     -9.24043378
      3.92000000	     -3.04527971	     -0.40315970	   -330.00800309	     -0.13888017	      0.94137508	     -0.64901552	     14.61127695	      1.06002126	     -1.46051918	    -68.04193419	    -10.90450019	     -0.49993795	     21.51370883	     -0.91255645	     12.28624406	    -27.59363439	     11.59349037	      7.91006502	     -0.64727011	      1.26971766	     -9.70668813
      3.93000000	     -2.94339227	     -0.20992400	   -330.54009527	     -0.13153256	      0.94297623	     -0.65358582	     15.97792723	      0.40647546	     -2.34266148	    -69.32952194	     -9.94867705	     -1.47505320	     20.42211676	     -0.94944692	     11.79016208	    -27.16701042	     11.96746243	      7.67529079	     -0.91562526	      1.17802275	    -10.13582723
      3.94000000	     -2.80824475	     -0.09872493	   -331.06290811	     -0.12413027	      0.94461900	     -0.65783508	     17.28777832	     -0.06785899	     -3.17603419	    -70.30714490	     -8.87418015	     -2.38186583	     19.31633485	     -1.08800955	     11.30146424	    -26.66738538	     12.31485589	      7.48021667	     -1.16887032	      1.16489157	    -10.53953619
      3.95000000	     -2.65233183	     -0.07101020	   -331.57515337	     -0.11669249	      0.94626975	     -0.66175609	     18.54916685	     -0.35709339	     -3.96501393	    -70.97310568	     -7.75307777	     -3.16855302	     18.21186613	     -1.32468209	     10.81558338	    -26.10269334	     12.63643549	      7.32674790	     -1.40048500	      1.22340609	    -10.92418309
      3.96000000	     -2.48977692	     -0.11243655	   -332.07964020	     -0.10922210	      0.94789572	     -0.66537906	     19.76991500	     -0.47791606	     -4.70134898	    -71.34324202	     -6.62727027	     -3.71966123	     17.11217064	     -1.63804532	     10.32938293	    -25.47839618	     12.92483998	      7.23060060	     -1.60190854	      1.33534118	    -11.27960960
      3.97000000	     -2.32202354	     -0.24253302	   -332.55782988	     -0.10176396	      0.94945101	     -0.66873031	     20.95548480	     -0.42500278	     -5.41932696	    -71.41825796	     -5.53798888	     -4.11461338	     16.04991156	     -2.03977157	      9.84784066	    -24.82858665	     13.20317844	      7.15547750	     -1.76987467	      1.52271264	    -11.64797560
      3.98000000	     -2.18048490	     -0.42106328	   -333.01459898	     -0.09432605	      0.95089584	     -0.67186601	     22.12274419	     -0.26826477	     -6.10771683	    -71.23032259	     -4.47110206	     -4.27410502	     15.03078658	     -2.47493091	      9.35923898	    -24.15511422	     13.46127199	      7.11840947	     -1.89134958	      1.73510231	    -12.02515866
      3.99000000	     -2.04147658	     -0.63063211	   -333.45266776	     -0.08689124	      0.95226195	     -0.67482569	     23.23331796	     -0.02949826	     -6.77489937	    -70.78383432	     -3.44246060	     -4.27463284	     14.00834743	     -2.93679584	      8.87985484	    -23.43768959	     13.70053719	      7.09398222	     -1.99820020	      1.97245195	    -12.39582788
      4.00000000	     -1.91082409	     -0.86429417	   -333.86765106	     -0.07948423	      0.95351216	     -0.67765492	     24.29195478	      0.25583126	     -7.43617332	    -70.10175811	     -2.43457678	     -4.07999425	     13.00214857	     -3.41173185	      8.39553436	    -22.70735123	     13.93041899	      7.07999229	     -2.09084237	      2.23189507	    -12.78064006
      4.01000000	     -1.80074356	     -1.08624634	   -334.26474731	     -0.07210735	      0.95464953	     -0.68041780	     25.29753889	      0.52150659	     -8.08083581	    -69.21287547	     -1.41125248	     -3.45592198	     11.98801471	     -3.85166099	      7.93759529	    -21.93837952	     14.11626791	      7.08212870	     -2.17159221	      2.47804092	    -13.14767011
      4.02000000	     -1.70298564	     -1.32548036	   -334.63919864	     -0.06476371	      0.95562463	     -0.68310339	     26.25443308	      0.77898789	     -8.75417564	    -68.13061663	     -0.45136002	     -2.83336294	     11.00649189	     -4.29196999	      7.47384587	    -21.18626664	     14.31796927	      7.06764623	     -2.23728272	      2.74398492	    -13.52754081
      4.03000000	     -1.61529991	     -1.55142898	   -334.99860672	     -0.05743773	      0.95645460	     -0.68574978	     27.14598925	      0.98433657	     -9.45167731	    -66.87730253	      0.44347110	     -2.13611281	     10.03123310	     -4.70044964	      7.01549833	    -20.44074147	     14.50944045	      7.03573522	     -2.30236945	      3.00358363	    -13.90297184
      4.04000000	     -1.53336368	     -1.75989414	   -335.34660077	     -0.05011502	      0.95714655	     -0.68837153	     27.96471820	      1.12349053	    -10.18349561	    -65.46893919	      1.23597276	     -1.44696934	      9.05181251	     -5.07375823	      6.57630586	    -19.69664763	     14.68778494	      6.98473571	     -2.37237830	      3.25559776	    -14.26517488
      4.05000000	     -1.46646478	     -1.94145052	   -335.68330031	     -0.04281260	      0.95766828	     -0.69097473	     28.72117137	      1.17623550	    -10.95510455	    -63.93481221	      1.93707254	     -0.79894278	      8.09073528	     -5.39818122	      6.13998194	    -18.98304391	     14.86615700	      6.91057597	     -2.44404194	      3.48781325	    -14.61614798
      4.06000000	     -1.41183508	     -2.09164886	   -336.01350948	     -0.03550698	      0.95802407	     -0.69354860	     29.40993387	      1.13932844	    -11.77198896	    -62.29084649	      2.54872455	     -0.22773127	      7.14436401	     -5.67256899	      5.70823374	    -18.30416934	     15.04208959	      6.81771972	     -2.51992700	      3.69363478	    -14.95300301
      4.07000000	     -1.36452929	     -2.21624211	   -336.33473021	     -0.02819528	      0.95822019	     -0.69609449	     30.02922008	      1.02378166	    -12.64401526	    -60.54666861	      3.05020817	      0.20109599	      6.20588824	     -5.90376527	      5.30345132	    -17.65137188	     15.22933517	      6.72323395	     -2.60113252	      3.88273873	    -15.27028298
      4.08000000	     -1.32709870	     -2.31724463	   -336.63116368	     -0.02088204	      0.95824238	     -0.69860742	     30.58274555	      0.82556315	    -13.59330476	    -58.71713890	      3.46122031	      0.47501785	      5.30522215	     -6.09668432	      4.90801445	    -17.06319832	     15.43409048	      6.64470468	     -2.68398596	      4.05148814	    -15.60507003
      4.09000000	     -1.29089026	     -2.35953166	   -336.96588302	     -0.01349663	      0.95813701	     -0.70104196	     31.05634593	      0.56512673	    -14.52971100	    -56.82195303	      3.82640956	      0.80657007	      4.36061817	     -6.22331492	      4.50122881	    -16.46343012	     15.62867668	      6.54269143	     -2.79099517	      4.16818359	    -15.85012670
      4.10000000	     -1.26856073	     -2.39776973	   -337.25795027	     -0.00612405	      0.95784729	     -0.70343842	     31.48012920	      0.25017418	    -15.56284796	    -54.85785097	      4.09460204	      0.97193498	      3.48181345	     -6.33060147	      4.12465198	    -15.94519628	     15.86033406	      6.48365853	     -2.88377628	      4.28398212	    -16.14033716
      4.11000000	     -1.23745170	     -2.39421083	   -337.58094794	      0.00133330	      0.95743817	     -0.70572577	     31.82441663	     -0.08837404	    -16.59582079	    -52.84092247	      4.30306987	      1.11214381	      2.56979861	     -6.39675829	      3.72091764	    -15.43284946	     16.09838912	      6.42773286	     -3.00126675	      4.36475655	    -16.36041076
      4.12000000	     -1.21369595	     -2.37644346	   -337.89194277	      0.00881787	      0.95687393	     -0.70793536	     32.11918940	     -0.45099829	    -17.67795377	    -50.78120912	      4.43945198	      1.18914631	      1.68763043	     -6.44039333	      3.32264482	    -14.96758966	     16.35570268	      6.39221913	     -3.11575516	      4.43543156	    -16.57401228
      4.13000000	     -1.21201494	     -2.35518726	   -338.18478775	      0.01633183	      0.95613988	     -0.71005239	     32.38505246	     -0.82583406	    -18.80754742	    -48.68809349	      4.53877001	      1.22698569	      0.85417246	     -6.46755805	      2.95277649	    -14.54573883	     16.62766503	      6.37229731	     -3.20545291	      4.49795167	    -16.78266529
      4.14000000	     -1.16240828	     -2.28818744	   -338.52724698	      0.02395412	      0.95535718	     -0.71204128	     32.54679745	     -1.18632696	    -19.91649617	    -46.57592112	      4.53614924	      1.16811567	     -0.05542628	     -6.46736961	      2.48884646	    -14.12710688	     16.90751222	      6.37360622	     -3.36468915	      4.54114883	    -16.91180320
      4.15000000	     -1.14667819	     -2.23174507	   -338.83667639	      0.03159207	      0.95440316	     -0.71395282	     32.70215850	     -1.54263504	    -21.05686938	    -44.44786031	      4.51522857	      1.06774687	     -0.89515335	     -6.46023465	      2.07531780	    -13.75065239	     17.20738679	      6.38880597	     -3.48129548	      4.59117942	    -17.07856840
      4.16000000	     -1.12532311	     -2.15793610	   -339.15734845	      0.03930836	      0.95334712	     -0.71575192	     32.80919672	     -1.88934308	    -22.20907041	    -42.32335588	      4.47181346	      0.86629514	     -1.74172389	     -6.43587204	      1.64270042	    -13.39034712	     17.50280688	      6.42964988	     -3.61001421	      4.63025459	    -17.18680143
      4.17000000	     -1.12584453	     -2.09291392	   -339.44664581	      0.04704537	      0.95215589	     -0.71749642	     32.90339933	     -2.22619268	    -23.37429871	    -40.20452248	      4.42380011	      0.70548201	     -2.53432558	     -6.40882894	      1.24554677	    -13.07022539	     17.80722009	      6.45366381	     -3.71002769	      4.68623693	    -17.34299166
      4.18000000	     -1.10920782	     -1.99805776	   -339.76985877	      0.05489992	      0.95090248	     -0.71911648	     32.94191905	     -2.54162798	    -24.50862297	    -38.11051198	      4.39224186	      0.37603068	     -3.36896826	     -6.35629945	      0.80211353	    -12.74403893	     18.08979405	      6.52002945	     -3.83998427	      4.72323472	    -17.40932246
      4.19000000	     -1.12055941	     -1.93191882	   -340.03469318	      0.06277605	      0.94952576	     -0.72071008	     32.97548781	     -2.83920271	    -25.65820160	    -36.02981598	      4.42471414	      0.18256457	     -4.12884121	     -6.32397947	      0.42491851	    -12.46371518	     18.38302984	      6.55079875	     -3.92537385	      4.79770106	    -17.56687824
      4.20000000	     -1.11400241	     -1.84262948	   -340.32989337	      0.07079550	      0.94811408	     -0.72221278	     32.95971073	     -3.11317249	    -26.77122578	    -33.99851625	      4.50974346	     -0.18195234	     -4.93460303	     -6.27242219	      0.00613799	    -12.17008620	     18.64139965	      6.64804077	     -4.03495265	      4.86600648	    -17.63316129
